
mtllib prototipo.mtl

g Mesh1 Group1 Model

usemtl FrontColor
v -14.1877 23.8584 -56.7231
vt 0.182278 0.191275
vn -0.244073 0 -0.969757
v 15.3143 23.8584 -56.2736
vt -0.979351 0.191275
vn 0.273505 0 -0.961871
v 15.3143 19 -56.2736
vt -0.979351 0
v -14.1877 19 -56.7231
vt 0.182278 0
f 1/1/1 2/2/2 3/3/2 4/4/1 

v 54.5511 23.8584 14.1428
vt 1.35905 4.29589
vn 0 1 -0
v 55.0006 23.8584 -15.3592
vt 0.44028 3.58509
v 40.639 23.8584 -41.1334
vt 4.44089e-016 2.51013
vt 0.156186 1.35905
vt 0.866987 0.44028
v -39.9619 23.8584 -42.3615
vt 1.94195 0
v -55.1021 23.8584 -17.0368
vt 3.09303 0.156186
v -55.5516 23.8584 12.4652
vt 4.0118 0.866987
v -41.19 23.8584 38.2394
vt 4.45208 1.94195
v -15.8653 23.8584 53.3796
vt 4.29589 3.09303
v 13.6367 23.8584 53.8291
vt 3.58509 4.0118
v 39.4109 23.8584 39.4675
vt 2.51013 4.45208
f 5/5/3 6/6/3 7/7/3 2/8/3 1/9/3 8/10/3 9/11/3 10/12/3 11/13/3 12/14/3 13/15/3 14/16/3 

vt -2.54195 0.191275
vn 0.969757 0 -0.244073
vt -3.70358 0.191275
vn 0.961871 0 0.273505
v 54.5511 19 14.1428
vt -3.70358 0
v 55.0006 19 -15.3592
vt -2.54195 0
f 6/17/4 5/18/5 15/19/5 16/20/4 

vt -1.92431 0.191275
vt -3.08594 0.191275
vn 0.696252 0 0.717798
v 39.4109 19 39.4675
vt -3.08594 0
vt -1.92431 0
f 5/21/5 14/22/6 17/23/6 15/24/5 

vt -0.635426 0.191275
vt -1.79705 0.191275
vn 0.244073 0 0.969757
v 13.6367 19 53.8291
vt -1.79705 0
vt -0.635426 0
f 14/25/6 13/26/7 18/27/7 17/28/6 

vt 0.979351 0.191275
vt -0.182278 0.191275
vn -0.273505 0 0.961871
v -15.8653 19 53.3796
vt -0.182278 0
vt 0.979351 0
f 13/29/7 12/30/8 19/31/8 18/32/7 

vt 2.48734 0.191275
vt 1.32571 0.191275
vn -0.717798 0 0.696252
v -41.19 19 38.2394
vt 1.32571 0
vt 2.48734 0
f 12/33/8 11/34/9 20/35/9 19/36/8 

vt 3.48448 0.191275
vt 2.32285 0.191275
vn -0.969757 0 0.244073
v -55.5516 19 12.4652
vt 2.32285 0
vt 3.48448 0
f 11/37/9 10/38/10 21/39/10 20/40/9 

vt 3.70358 0.191275
vt 2.54195 0.191275
vn -0.961871 0 -0.273505
v -55.1021 19 -17.0368
vt 2.54195 0
vt 3.70358 0
f 10/41/10 9/42/11 22/43/11 21/44/10 

vt 3.08594 0.191275
vt 1.92431 0.191275
vn -0.696252 0 -0.717798
v -39.9619 19 -42.3615
vt 1.92431 0
vt 3.08594 0
f 9/45/11 8/46/12 23/47/12 22/48/11 

vt 1.79705 0.191275
vt 0.635426 0.191275
vt 0.635426 0
vt 1.79705 0
f 8/49/12 1/50/1 4/51/1 23/52/12 

vt -0.44028 3.58509
vn 0 -1 0
vt -1.35905 4.29589
vt -2.51013 4.45208
vt -3.58509 4.0118
vt -4.29589 3.09303
vt -4.45208 1.94195
vt -4.0118 0.866987
vt -3.09303 0.156186
vt -1.94195 0
vt -0.866987 0.44028
vt -0.156186 1.35905
v 40.639 19 -41.1334
vt -4.44089e-016 2.51013
f 16/53/13 15/54/13 17/55/13 18/56/13 19/57/13 20/58/13 21/59/13 22/60/13 23/61/13 4/62/13 3/63/13 24/64/13 

vt -1.32571 0.191275
vt -2.48734 0.191275
vn 0.717798 0 -0.696252
vt -2.48734 0
vt -1.32571 0
f 2/65/2 7/66/14 24/67/14 3/68/2 

vt -2.32285 0.191275
vt -3.48448 0.191275
vt -3.48448 0
vt -2.32285 0
f 7/69/14 6/70/4 16/71/4 24/72/14 

g Mesh2 Group2 Model

v -14.1877 23.8584 -54.362
v 15.3143 23.8584 -53.9124
v 15.3143 19 -53.9124
v -14.1877 19 -54.362
f 25/1/1 26/2/2 27/3/2 28/4/1 

v 54.5511 23.8584 16.504
v 55.0006 23.8584 -12.998
v 40.639 23.8584 -38.7722
v -39.9619 23.8584 -40.0003
v -55.1021 23.8584 -14.6756
v -55.5516 23.8584 14.8263
v -41.19 23.8584 40.6005
v -15.8653 23.8584 55.7408
v 13.6367 23.8584 56.1903
v 39.4109 23.8584 41.8286
f 29/5/3 30/6/3 31/7/3 26/8/3 25/9/3 32/10/3 33/11/3 34/12/3 35/13/3 36/14/3 37/15/3 38/16/3 

v 54.5511 19 16.504
v 55.0006 19 -12.998
f 30/17/4 29/18/5 39/19/5 40/20/4 

v 39.4109 19 41.8286
f 29/21/5 38/22/6 41/23/6 39/24/5 

v 13.6367 19 56.1903
f 38/25/6 37/26/7 42/27/7 41/28/6 

v -15.8653 19 55.7408
f 37/29/7 36/30/8 43/31/8 42/32/7 

v -41.19 19 40.6005
f 36/33/8 35/34/9 44/35/9 43/36/8 

v -55.5516 19 14.8263
f 35/37/9 34/38/10 45/39/10 44/40/9 

v -55.1021 19 -14.6756
f 34/41/10 33/42/11 46/43/11 45/44/10 

v -39.9619 19 -40.0003
f 33/45/11 32/46/12 47/47/12 46/48/11 

f 32/49/12 25/50/1 28/51/1 47/52/12 

v 40.639 19 -38.7722
f 40/53/13 39/54/13 41/55/13 42/56/13 43/57/13 44/58/13 45/59/13 46/60/13 47/61/13 28/62/13 27/63/13 48/64/13 

f 26/65/2 31/66/14 48/67/14 27/68/2 

f 31/69/14 30/70/4 40/71/4 48/72/14 

g Mesh3 Model

v -38.475 19 -38.475
vt -0.554441 0.748031
vn 0.707107 0 0.707107
v -38.475 0.121356 -38.475
vt -0.554441 0.0047778
v -14.0828 0.121356 -52.5578
vt 0.554441 0.0047778
vn 0.258799 0.000303159 0.965931
v -14.0828 19 -52.5578
vt 0.554441 0.748031
f 49/73/15 50/74/15 51/75/16 52/76/16 

v -52.5578 19 -14.0828
vn 0.965926 0 0.258819
v -52.5578 0.121356 -14.0828
f 53/73/17 54/74/17 50/75/15 49/76/15 

v -52.5578 19 14.0828
vn 0.965926 0 -0.258819
v -52.5578 0.121356 14.0828
f 55/73/18 56/74/18 54/75/17 53/76/17 

v -38.475 19 38.475
vn 0.707107 0 -0.707107
v -38.475 0.121356 38.475
f 57/73/19 58/74/19 56/75/18 55/76/18 

v -14.0828 19 52.5578
vn 0.258819 0 -0.965926
v -14.0828 0.121356 52.5578
f 59/73/20 60/74/20 58/75/19 57/76/19 

v 14.0828 19 52.5578
vn -0.258819 0 -0.965926
v 14.0828 0.121356 52.5578
f 61/73/21 62/74/21 60/75/20 59/76/20 

v 38.475 19 38.475
vn -0.707107 0 -0.707107
v 38.475 0.121356 38.475
f 63/73/22 64/74/22 62/75/21 61/76/21 

v 52.5578 19 14.0828
vn -0.965926 0 -0.258819
v 52.5578 0.121356 14.0828
f 65/73/23 66/74/23 64/75/22 63/76/22 

v 52.5578 19 -14.0828
vn -0.965926 0 0.258819
v 52.5578 0.121356 -14.0828
f 67/73/24 68/74/24 66/75/23 65/76/23 

v 38.475 19 -38.475
vn -0.707107 0 0.707107
v 38.475 0.121356 -38.475
f 69/73/25 70/74/25 68/75/24 67/76/24 

v 14.0828 19 -52.5578
vn -0.258839 0.000303156 0.96592
v 14.0828 0.121356 -52.5578
f 71/73/26 72/74/26 70/75/25 69/76/25 

vt -0.554526 0.749243
vt -0.554526 0.00598963
vt 0.554357 0.00598966
vt 0.554357 0.749243
v 2.47587 19 -52.5799
vt 0.0973905 0.749244
vn -4.08369e-005 0.000585655 1
v 2.47587 14 -52.5799
vt 0.0973905 0.552393
v -5.52413 14 -52.5799
vt -0.21757 0.552393
v -5.52413 19 -52.5799
vt -0.21757 0.749244
f 52/77/16 51/78/16 72/79/26 71/80/26 73/81/27 74/82/27 75/83/27 76/84/27 

v -14.0828 0 -52.5578
vt -0.554441 0
vn 0.258819 0 0.965926
v 14.0828 0 -52.5578
vt 0.554441 0
vn -0.258819 0 0.965926
f 77/85/28 78/86/29 72/75/29 51/74/28 

vt 0.554441 2.0692
vn 0 -1 -0
v 14.7527 0 -55.0578
vt -0.580814 2.16763
vt -0.554441 2.0692
f 77/87/30 79/88/30 78/89/30

v -14.7527 0 -55.0578
vt 0.580814 2.16763
f 77/87/30 80/90/30 79/88/30

v -38.475 0 -38.475
vt 1.51476 1.51476
f 81/91/30 80/90/30 77/87/30

v -40.3051 0 -40.3051
vt 1.58681 1.58681
f 81/91/30 82/92/30 80/90/30

v -52.5578 0 -14.0828
vt 2.0692 0.554441
f 83/93/30 82/92/30 81/91/30

v -55.0578 0 -14.7527
vt 2.16763 0.580814
f 83/93/30 84/94/30 82/92/30

v -55.0578 0 14.7527
vt 2.16763 -0.580814
f 84/94/30 83/93/30 85/95/30

v -52.5578 0 14.0828
vt 2.0692 -0.554441
f 86/96/30 85/95/30 83/93/30

v -40.3051 0 40.3051
vt 1.58681 -1.58681
f 85/95/30 86/96/30 87/97/30

v -38.475 0 38.475
vt 1.51476 -1.51476
f 87/97/30 86/96/30 88/98/30

f 88/85/19 86/86/18 56/75/18 58/74/19 

f 86/85/18 83/86/17 54/75/17 56/74/18 

f 83/85/17 81/86/15 50/75/15 54/74/17 

f 81/85/15 77/86/28 51/75/28 50/74/15 

vt 0.554441 -2.0692
vt -1.51476 1.51476
vt -2.0692 0.554441
vt -2.0692 -0.554441
vt -1.51476 -1.51476
vt -0.554441 -2.0692
f 60/99/30 58/98/30 56/96/30 54/93/30 50/91/30 51/87/30 72/89/30 70/100/30 68/101/30 66/102/30 64/103/30 62/104/30 

v -14.0828 0 52.5578
f 89/85/20 88/86/19 58/75/19 60/74/20 

v -14.7527 0 55.0578
vt 0.580814 -2.16763
f 90/105/30 88/98/30 89/99/30

f 87/97/30 88/98/30 90/105/30

vt -0.580814 0
vt 0.580814 0
v -14.7527 19 55.0578
vt 0.580814 0.748031
v -40.3051 19 40.3051
vt -0.580814 0.748031
f 87/106/25 90/107/29 91/108/29 92/109/25 

v 14.7527 0 55.0578
v 14.7527 19 55.0578
f 90/106/29 93/107/28 94/108/28 91/109/29 

vt -0.580814 -2.16763
f 90/105/30 89/99/30 93/110/30

v 14.0828 0 52.5578
f 93/110/30 89/99/30 95/104/30

f 95/85/21 89/86/20 60/75/20 62/74/21 

v 38.475 0 38.475
f 96/85/22 95/86/21 62/75/21 64/74/22 

f 93/110/30 95/104/30 96/103/30

v 40.3051 0 40.3051
vt -1.58681 -1.58681
f 93/110/30 96/103/30 97/111/30

v 52.5578 0 14.0828
f 97/111/30 96/103/30 98/102/30

f 98/85/23 96/86/22 64/75/22 66/74/23 

v 52.5578 0 -14.0828
f 99/85/24 98/86/23 66/75/23 68/74/24 

v 55.0578 0 -14.7527
vt -2.16763 0.580814
f 99/101/30 100/112/30 98/102/30

v 40.3051 0 -40.3051
vt -1.58681 1.58681
f 99/101/30 101/113/30 100/112/30

v 38.475 0 -38.475
f 102/100/30 101/113/30 99/101/30

f 102/100/30 79/88/30 101/113/30

f 78/89/30 79/88/30 102/100/30

f 78/85/29 102/86/25 70/75/25 72/74/29 

f 102/85/25 99/86/24 68/75/24 70/74/25 

vn 0.258819 3.50475e-016 -0.965926
v 14.7527 19 -55.0578
v 40.3051 19 -40.3051
f 101/106/19 79/107/31 103/108/31 104/109/19 

v -14.7527 19 -55.0578
vn -0.258819 3.50475e-016 -0.965926
v -5.52413 19 -55.0578
vt 0.217486 0.748031
vn -5.17924e-015 6.77066e-016 -1
v -5.52413 14 -55.0578
vt 0.217486 0.551181
v 2.47587 14 -55.0578
vt -0.097475 0.551181
v 2.47587 19 -55.0578
vt -0.097475 0.748031
v 2.95534 19 -55.0578
vt -0.116352 0.748031
vt -0.580814 -1.46763e-015
vt 0.580814 -1.46763e-015
f 105/108/32 106/114/33 107/115/33 108/116/33 109/117/33 110/118/33 103/109/31 79/119/31 80/120/32 

vt 0.097475 2.16763
vn 3.81079e-033 1 1.35221e-032
vt 0.097475 2.07008
vt -0.217486 2.07008
vt -0.217486 2.16763
v -40.3051 19 -40.3051
v -55.0578 19 -14.7527
v -55.0578 19 14.7527
vt -2.16763 -0.580814
v 40.3051 19 40.3051
v 55.0578 19 14.7527
v 55.0578 19 -14.7527
vt 0.116352 2.16763
f 109/121/34 73/122/34 71/87/34 69/91/34 67/93/34 65/96/34 63/98/34 61/99/34 59/104/34 57/103/34 55/102/34 53/101/34 49/100/34 52/89/34 76/123/34 106/124/34 105/88/34 111/113/34 112/112/34 113/125/34 92/111/34 91/110/34 94/105/34 114/97/34 115/95/34 116/94/34 104/92/34 103/90/34 110/126/34 

vt -2.16763 0.748031
vn -1 0 5.40589e-015
vt -2.16763 0.551181
vt -2.07008 0.551181
vt -2.07008 0.748031
f 109/127/35 108/128/35 74/129/35 73/130/35 

vn 1.44688e-030 1 2.56542e-016
f 108/121/36 107/124/36 75/123/36 74/122/36 

vt 2.16763 0.551181
vn 1 -5.63993e-016 -5.69041e-015
vt 2.16763 0.748031
vt 2.07008 0.748031
vt 2.07008 0.551181
f 107/131/37 106/132/37 76/133/37 75/134/37 

f 80/106/32 82/107/22 111/108/22 105/109/32 

f 82/106/22 84/107/23 112/108/23 111/109/22 

f 84/106/23 85/107/24 113/108/24 112/109/23 

f 85/106/24 87/107/25 92/108/25 113/109/24 

f 93/106/28 97/107/15 114/108/15 94/109/28 

v 55.0578 0 14.7527
f 97/106/15 117/107/17 115/108/17 114/109/15 

f 97/111/30 98/102/30 117/125/30

f 117/125/30 98/102/30 100/112/30

f 117/106/17 100/107/18 116/108/18 115/109/17 

f 100/106/18 101/107/19 104/108/19 116/109/18 

